<?xml version="1.0" encoding="utf-8"?>
<!-- Generator: Adobe Illustrator 25.4.1, SVG Export Plug-In . SVG Version: 6.00 Build 0)  -->
<svg version="1.1" id="Ebene_1" xmlns="http://www.w3.org/2000/svg" xmlns:xlink="http://www.w3.org/1999/xlink" x="0px" y="0px"
	 viewBox="0 0 36.9 259.6" style="enable-background:new 0 0 36.9 259.6;" xml:space="preserve">
<style type="text/css">
	.st0{fill:#96C11F;}
	.st1{fill:#1C1C1C;}
</style>
<g id="Ebene_2_00000067943882348598767740000013464635064568388270_">
	<g id="Ebene_1-2">
		<path class="st0" d="M19.9,241c1.4,0,2.8,0.2,4.2,0.6c1.2,0.3,2.3,0.9,3.3,1.7c0.9,0.7,1.6,1.7,2.1,2.8c0.5,1.2,0.8,2.5,0.8,3.8
			c0,0.7-0.1,1.5-0.2,2.2c-0.1,0.7-0.4,1.4-0.6,2h7.5v5.7H10.6c-0.1-0.5-0.3-1.1-0.4-1.7s-0.3-1.4-0.4-2.1s-0.2-1.5-0.2-2.2
			s-0.1-1.5-0.1-2.1c0-1.5,0.2-3,0.7-4.4c0.5-1.2,1.2-2.3,2.1-3.3c0.9-0.9,2.1-1.6,3.3-2C17,241.3,18.4,241,19.9,241z M20.1,246.8
			c-1.5-0.1-3,0.3-4.2,1.2c-1.1,0.8-1.7,2.1-1.6,3.5c0,0.5,0,1,0.1,1.4c0,0.4,0.1,0.8,0.1,1.1h10.2c0.3-0.4,0.4-0.9,0.6-1.4
			c0.1-0.6,0.2-1.1,0.2-1.7C25.5,248.2,23.7,246.8,20.1,246.8L20.1,246.8z"/>
		<path class="st0" d="M29.9,238.6H1.3l-0.9-5.7H10c-0.2-0.5-0.3-1-0.4-1.5c-0.1-0.6-0.2-1.1-0.2-1.7c0-1.4,0.2-2.8,0.7-4.1
			c0.4-1,1-1.9,1.9-2.6c0.9-0.7,1.8-1.1,2.9-1.4c1.2-0.3,2.5-0.4,3.7-0.4h11.3v5.7H19.3c-1.3-0.1-2.7,0.1-3.9,0.7
			c-0.8,0.6-1.3,1.6-1.1,2.6c0,0.5,0,1,0.1,1.4c0.1,0.4,0.2,0.9,0.3,1.2h15.2V238.6z"/>
		<path class="st0" d="M9.9,200.9c3.9,1.1,7.5,2.3,10.8,3.6s6.6,2.6,9.8,4.1c1,0.5,2,1,2.9,1.6c0.7,0.5,1.4,1.1,2,1.8
			c0.5,0.6,0.9,1.4,1.1,2.1c0.3,0.9,0.4,1.9,0.4,2.8c0,0.8-0.1,1.6-0.2,2.4c-0.1,0.6-0.3,1.3-0.6,1.9l-4.5-1c0.2-0.5,0.3-1,0.4-1.6
			c0.1-0.5,0.1-1,0.1-1.4c0.1-0.9-0.2-1.7-0.8-2.3c-0.7-0.6-1.4-1.1-2.3-1.4c-2.5,1.3-5.4,2.6-8.5,3.9c-3.5,1.4-7,2.6-10.6,3.7v-6
			c1-0.2,2.1-0.6,3.2-0.9s2.3-0.7,3.5-1.1s2.3-0.8,3.4-1.2s2.1-0.8,3-1.1c-0.9-0.3-1.9-0.7-3-1s-2.3-0.7-3.4-1l-3.5-1
			c-1.1-0.3-2.2-0.6-3.2-0.9L9.9,200.9z"/>
		<path class="st0" d="M25.9,194.1c0-0.7-0.1-1.5-0.3-2.2c-0.2-0.4-0.7-0.7-1.2-0.6c-0.5,0-1,0.4-1.2,0.8c-0.5,0.8-0.9,1.7-1.2,2.5
			c-0.3,0.8-0.6,1.6-1,2.4c-0.3,0.7-0.8,1.3-1.3,1.8c-0.5,0.5-1.1,0.9-1.8,1.2c-0.8,0.3-1.6,0.4-2.5,0.4c-1.7,0.1-3.4-0.7-4.5-2.1
			c-1.2-1.7-1.8-3.7-1.6-5.7c0-1.2,0.1-2.3,0.3-3.5c0.2-0.9,0.4-1.8,0.7-2.7l4.4,1c-0.2,0.7-0.4,1.4-0.6,2.1
			c-0.2,0.9-0.3,1.7-0.3,2.6c0,1.8,0.5,2.7,1.5,2.7c0.2,0,0.4,0,0.6-0.1c0.2-0.1,0.4-0.3,0.5-0.5c0.2-0.3,0.4-0.6,0.5-0.9
			c0.2-0.4,0.4-0.9,0.6-1.5c0.4-1.1,0.8-2.1,1.4-3.1c0.4-0.7,0.9-1.4,1.5-1.9c0.5-0.5,1.1-0.8,1.7-1c0.7-0.2,1.5-0.3,2.2-0.3
			c1.8-0.1,3.5,0.7,4.5,2.2c1.1,1.9,1.6,4.1,1.5,6.3c0,1.5-0.1,3-0.5,4.4c-0.2,0.8-0.5,1.7-0.8,2.4l-4.6-1c0.4-1,0.7-2,0.9-3
			C25.7,196,25.8,195,25.9,194.1z"/>
		<path class="st0" d="M4.2,177.1c0.9-0.1,1.8,0.3,2.5,1c0.6,0.6,0.9,1.5,0.9,2.4c0,0.9-0.3,1.7-0.9,2.4c-0.6,0.7-1.5,1-2.4,1
			c-0.9,0-1.8-0.3-2.5-1c-0.6-0.7-0.9-1.5-0.9-2.4c0-0.9,0.3-1.7,0.9-2.4C2.3,177.4,3.2,177,4.2,177.1z M29.9,177.6v5.7h-20v-5.7
			H29.9z"/>
		<path class="st0" d="M19.9,155.5c1.5,0,2.9,0.2,4.3,0.7c1.2,0.4,2.4,1.1,3.4,2c0.9,0.9,1.7,1.9,2.1,3.1c0.5,1.3,0.8,2.7,0.8,4.1
			c0,1.4-0.2,2.7-0.8,4c-0.5,1.2-1.2,2.2-2.1,3.1c-1,0.9-2.1,1.6-3.4,2c-1.4,0.5-2.8,0.7-4.3,0.7c-1.5,0-2.9-0.2-4.3-0.7
			c-1.2-0.4-2.4-1.1-3.3-2c-0.9-0.9-1.6-1.9-2.1-3.1c-0.5-1.2-0.8-2.6-0.8-3.9c0-1.4,0.2-2.7,0.8-4c0.5-1.2,1.2-2.2,2.1-3.1
			c1-0.9,2.1-1.6,3.3-2C17,155.8,18.4,155.5,19.9,155.5z M19.9,161.3c-1.4-0.1-2.9,0.3-4.1,1.1c-1,0.7-1.6,1.8-1.5,3
			c0,1.2,0.5,2.3,1.5,3c1.2,0.8,2.7,1.1,4.1,1.1c1.5,0.1,2.9-0.3,4.1-1.1c1-0.7,1.6-1.8,1.5-3c0.1-1.2-0.5-2.3-1.5-3
			C22.8,161.6,21.3,161.2,19.9,161.3z"/>
		<path class="st1" d="M9.5,146.3c0-1.1,0.2-2.3,0.6-3.3c0.3-0.9,0.9-1.6,1.5-2.2c0.7-0.6,1.5-1,2.4-1.2c1-0.3,1.9-0.4,2.9-0.4h12.5
			c0.1,0.4,0.2,0.7,0.2,1.1c0.1,0.5,0.2,1.1,0.3,1.7s0.2,1.4,0.2,2.1s0.1,1.6,0.1,2.4c0,1-0.1,2-0.4,2.9c-0.2,0.8-0.6,1.6-1.1,2.3
			c-0.5,0.7-1.1,1.2-1.9,1.6c-0.9,0.4-1.9,0.6-2.9,0.6c-1,0-1.9-0.2-2.8-0.6c-0.8-0.4-1.4-1-1.9-1.7c-0.5-0.8-0.9-1.7-1.1-2.7
			c-0.2-1.1-0.4-2.2-0.4-3.4c0-0.4,0-0.7,0.1-1.1c0-0.4,0.1-0.8,0.1-1.1s0.1-0.7,0.2-1c0-0.2,0.1-0.4,0.2-0.6h-1.3
			c-0.7,0-1.3,0.1-2,0.1c-0.6,0.1-1.2,0.3-1.8,0.7c-0.6,0.4-1,0.9-1.3,1.5c-0.4,0.8-0.5,1.6-0.5,2.5c0,1.1,0.1,2.2,0.3,3.3
			c0.2,0.7,0.4,1.2,0.5,1.6l-2.2,0.4c-0.3-0.6-0.5-1.3-0.6-2C9.6,148.6,9.5,147.5,9.5,146.3z M28.1,146.1c0-1,0-1.8-0.1-2.6
			c0-0.6-0.1-1.2-0.2-1.9h-7c-0.2,0.4-0.3,0.9-0.4,1.3c-0.2,0.8-0.2,1.7-0.2,2.6c0,0.6,0.1,1.3,0.1,1.9c0.1,0.6,0.3,1.3,0.6,1.9
			c0.3,0.5,0.7,1,1.2,1.4c0.6,0.4,1.3,0.6,2,0.5c0.7,0,1.3-0.1,1.9-0.4c0.5-0.2,0.9-0.6,1.2-1c0.3-0.5,0.6-1,0.7-1.6
			C28.1,147.6,28.1,146.8,28.1,146.1z"/>
		<path class="st1" d="M28.1,130.6c0-1.2-0.2-2.4-0.7-3.6c-0.4-0.9-1.4-1.5-2.4-1.4c-0.5,0-0.9,0.1-1.4,0.2c-0.4,0.2-0.7,0.5-1,0.8
			c-0.4,0.5-0.7,1-0.9,1.5c-0.3,0.6-0.6,1.4-1,2.3c-0.3,0.8-0.6,1.5-1,2.1c-0.3,0.6-0.7,1.2-1.1,1.8c-0.4,0.5-0.9,0.9-1.5,1.2
			c-0.7,0.3-1.4,0.5-2.1,0.5c-1.5,0.1-3-0.6-4-1.8c-1.1-1.4-1.6-3.2-1.5-5c0-1.1,0.1-2.3,0.4-3.4c0.1-0.6,0.4-1.3,0.6-1.9l2.2,0.6
			c-0.1,0.3-0.4,0.8-0.6,1.6c-0.3,1-0.4,2.1-0.4,3.2c0,0.5,0.1,1.1,0.2,1.6c0.1,0.5,0.3,0.9,0.5,1.3c0.2,0.4,0.6,0.7,0.9,0.9
			c0.4,0.2,0.9,0.4,1.4,0.4c0.5,0,1-0.1,1.4-0.3c0.4-0.2,0.7-0.5,1-0.9c0.3-0.5,0.6-1,0.8-1.5c0.3-0.6,0.5-1.2,0.9-2
			s0.6-1.5,0.9-2.2c0.3-0.7,0.7-1.3,1.1-1.9c0.4-0.5,1-1,1.6-1.3c0.7-0.4,1.6-0.5,2.4-0.5c1.6-0.1,3.2,0.7,4.1,2
			c1,1.7,1.5,3.6,1.4,5.5c0.1,1.3-0.1,2.7-0.4,4c-0.2,0.6-0.4,1.2-0.7,1.9l-2.2-0.6c0.1-0.2,0.2-0.3,0.2-0.5c0.1-0.3,0.3-0.7,0.4-1
			c0.2-0.5,0.3-1.1,0.4-1.6C28.1,132,28.2,131.3,28.1,130.6z"/>
		<path class="st1" d="M10,117.8v-7.9h2.1v7.9h10.6c0.9,0,1.9-0.1,2.8-0.3c0.6-0.1,1.2-0.4,1.6-0.8c0.4-0.4,0.6-0.8,0.8-1.3
			c0.1-0.6,0.2-1.1,0.2-1.7c0-0.9-0.1-1.7-0.4-2.5c-0.2-0.5-0.4-1-0.7-1.5l2.1-0.6c0.3,0.6,0.6,1.2,0.8,1.9c0.3,0.9,0.5,1.9,0.5,2.9
			c0,1.1-0.1,2.1-0.5,3.1c-0.3,0.8-0.8,1.5-1.5,2c-0.7,0.5-1.6,0.9-2.5,1.1c-1.1,0.2-2.3,0.3-3.5,0.3H4.1l-0.5-2.5L10,117.8z"/>
		<path class="st1" d="M19.9,108.3c-1.6,0-3.1-0.2-4.6-0.8c-1.2-0.5-2.3-1.1-3.3-2c-0.8-0.8-1.5-1.7-1.9-2.8c-0.4-1-0.6-2.1-0.6-3.2
			c-0.1-2.2,0.8-4.3,2.4-5.8c1.6-1.4,4.1-2.2,7.4-2.2h0.6l0.6,0.1v14c2,0.1,4-0.6,5.6-1.8c1.3-1.1,2-2.9,2-5.4
			c0-1.1-0.1-2.2-0.4-3.2c-0.2-0.6-0.4-1.1-0.7-1.7l2.2-0.5c0.3,0.6,0.6,1.3,0.7,2c0.3,1.1,0.4,2.3,0.4,3.5c0,1.5-0.2,3-0.8,4.5
			c-0.5,1.2-1.2,2.2-2.2,3c-1,0.8-2.1,1.4-3.3,1.7C22.8,108.1,21.3,108.3,19.9,108.3z M18.4,94.2c-1.7-0.1-3.4,0.5-4.9,1.5
			c-1.2,1-1.8,2.4-1.7,3.9c0,0.8,0.2,1.7,0.5,2.4c0.4,0.7,0.8,1.3,1.4,1.8c0.6,0.5,1.3,1,2.1,1.2c0.8,0.3,1.7,0.5,2.5,0.5V94.2z"/>
		<path class="st1" d="M10.7,88.7c-0.2-0.7-0.4-1.7-0.7-3c-0.3-1.5-0.4-3.1-0.4-4.6c0-1.3,0.2-2.6,0.6-3.8c0.4-1,1-1.8,1.9-2.4
			c0.9-0.6,1.8-1.1,2.9-1.3c1.2-0.3,2.5-0.4,3.7-0.4h11.2v2.5H19.6c-1.2,0-2.4,0.1-3.6,0.3c-0.9,0.2-1.7,0.5-2.4,1
			c-0.6,0.4-1.1,1.1-1.3,1.8c-0.3,0.9-0.4,1.8-0.4,2.8c0,1,0.1,2,0.2,3.1c0.1,0.6,0.2,1.1,0.3,1.7h17.5v2.5L10.7,88.7z"/>
		<path class="st1" d="M10.7,55.1c-0.2-0.7-0.4-1.8-0.7-3c-0.3-1.5-0.4-3.1-0.4-4.6c0-1.3,0.2-2.6,0.6-3.8c0.4-1,1-1.8,1.9-2.4
			c0.9-0.6,1.8-1.1,2.9-1.3c1.2-0.3,2.5-0.4,3.7-0.4h11.2V42H19.6c-1.2,0-2.4,0.1-3.6,0.3c-0.9,0.2-1.7,0.5-2.4,1
			c-0.6,0.4-1.1,1.1-1.3,1.8c-0.3,0.9-0.4,1.8-0.4,2.8c0,1,0.1,2.1,0.2,3.1c0.1,0.6,0.2,1.1,0.3,1.7h17.5v2.5L10.7,55.1z"/>
		<path class="st1" d="M10.7,35.1c-0.2-0.8-0.4-1.8-0.7-3c-0.3-1.5-0.4-3.1-0.4-4.6c0-1.3,0.2-2.6,0.6-3.8c0.4-1,1-1.8,1.9-2.4
			c0.9-0.6,1.8-1.1,2.9-1.3c1.2-0.3,2.5-0.4,3.7-0.4h11.2v2.5H19.6c-1.2,0-2.4,0.1-3.6,0.3c-0.9,0.2-1.7,0.5-2.4,1
			c-0.6,0.4-1.1,1.1-1.3,1.8c-0.3,0.9-0.4,1.8-0.4,2.8c0,1,0.1,2,0.2,3.1c0.1,0.6,0.2,1.1,0.3,1.7h17.5v2.5L10.7,35.1z"/>
		<path class="st1" d="M19.1,10.1c0.7-1,1.4-1.9,2.2-2.8C22.1,6.4,23,5.5,24,4.6s2-1.7,3-2.6s2-1.5,2.9-2v3c-1.1,0.6-2.1,1.3-3,2.1
			c-1,0.8-1.9,1.6-2.8,2.5c-0.9,0.9-1.6,1.8-2.4,2.6c-0.6,0.7-1.1,1.5-1.6,2.3h9.7v2.5H0.5L0,12.6h18.6c-0.5-0.5-1.1-1.2-1.9-2
			S15.1,9,14.3,8.1S12.7,6.5,12,5.8s-1.4-1.4-2-1.9V0.9c0.6,0.6,1.3,1.3,2.1,2l2.4,2.4c0.8,0.8,1.6,1.6,2.4,2.4S18.4,9.3,19.1,10.1z
			"/>
		<polygon class="st0" points="29.9,69.8 29.9,67.3 0,56.8 0,59.3 		"/>
	</g>
</g>
</svg>
