<?xml version="1.0" encoding="utf-8"?>
<!-- Generator: Adobe Illustrator 25.4.1, SVG Export Plug-In . SVG Version: 6.00 Build 0)  -->
<svg version="1.1" id="Ebene_1" xmlns="http://www.w3.org/2000/svg" xmlns:xlink="http://www.w3.org/1999/xlink" x="0px" y="0px"
	 viewBox="0 0 259.6 36.9" style="enable-background:new 0 0 259.6 36.9;" xml:space="preserve">
<style type="text/css">
	.st0{fill:#96C11F;}
	.st1{fill:#1C1C1C;}
</style>
<g id="Ebene_2_00000067943882348598767740000013464635064568388270_">
	<g id="Ebene_1-2">
		<path class="st0" d="M18.8,20c0,1.4-0.2,2.8-0.6,4.2c-0.3,1.2-0.9,2.3-1.7,3.3c-0.7,0.9-1.7,1.6-2.8,2.1c-1.2,0.5-2.5,0.8-3.8,0.8
			c-0.7,0-1.5-0.1-2.2-0.2s-1.4-0.4-2-0.6v7.5h-5.7V10.7c0.5-0.1,1.1-0.3,1.7-0.4S3,10,3.8,9.9S5.3,9.7,6,9.7s1.5-0.1,2.1-0.1
			c1.5,0,3,0.2,4.4,0.7c1.2,0.5,2.3,1.2,3.3,2.1c0.9,0.9,1.6,2.1,2,3.3C18.5,17.1,18.8,18.5,18.8,20z M13,20.2
			c0.1-1.5-0.3-3-1.2-4.2c-0.8-1.1-2.1-1.7-3.5-1.6c-0.5,0-1,0-1.4,0.1c-0.4,0-0.8,0.1-1.1,0.1v10.2c0.4,0.3,0.9,0.4,1.4,0.6
			c0.6,0.1,1.1,0.2,1.7,0.2C11.6,25.6,13,23.8,13,20.2L13,20.2z"/>
		<path class="st0" d="M21.2,30V1.4l5.7-0.9v9.6c0.5-0.2,1-0.3,1.5-0.4C29,9.6,29.5,9.5,30,9.5c1.4,0,2.8,0.2,4.1,0.7
			c1,0.4,1.9,1,2.6,1.9c0.7,0.9,1.1,1.8,1.4,2.9c0.3,1.2,0.4,2.5,0.4,3.7V30h-5.7V19.4c0.1-1.3-0.1-2.7-0.7-3.9
			c-0.6-0.8-1.6-1.3-2.6-1.1c-0.5,0-1,0-1.4,0.1s-0.9,0.2-1.2,0.3V30H21.2z"/>
		<path class="st0" d="M58.9,10c-1.1,3.9-2.3,7.5-3.6,10.8s-2.6,6.6-4.1,9.8c-0.5,1-1,2-1.6,2.9c-0.5,0.7-1.1,1.4-1.8,2
			c-0.6,0.5-1.4,0.9-2.1,1.1c-0.9,0.3-1.9,0.4-2.8,0.4c-0.8,0-1.6-0.1-2.4-0.2c-0.6-0.1-1.3-0.3-1.9-0.6l1-4.5
			c0.5,0.2,1,0.3,1.6,0.4c0.5,0.1,1,0.1,1.4,0.1c0.9,0.1,1.7-0.2,2.3-0.8c0.6-0.7,1.1-1.4,1.4-2.3c-1.3-2.5-2.6-5.4-3.9-8.5
			c-1.4-3.5-2.6-7-3.7-10.6h6c0.2,1,0.6,2.1,0.9,3.2s0.7,2.3,1.1,3.5s0.8,2.3,1.2,3.4s0.8,2.1,1.1,3c0.3-0.9,0.7-1.9,1-3
			s0.7-2.3,1-3.4l1-3.5c0.3-1.1,0.6-2.2,0.9-3.2L58.9,10z"/>
		<path class="st0" d="M65.7,26c0.7,0,1.5-0.1,2.2-0.3c0.4-0.2,0.7-0.7,0.6-1.2c0-0.5-0.4-1-0.8-1.2c-0.8-0.5-1.7-0.9-2.5-1.2
			c-0.8-0.3-1.6-0.6-2.4-1c-0.7-0.3-1.3-0.8-1.8-1.3s-0.9-1.1-1.2-1.8c-0.3-0.8-0.4-1.6-0.4-2.5c-0.1-1.7,0.7-3.4,2.1-4.5
			c1.7-1.2,3.7-1.8,5.7-1.6c1.2,0,2.3,0.1,3.5,0.3c0.9,0.2,1.8,0.4,2.7,0.7l-1,4.4c-0.7-0.2-1.4-0.4-2.1-0.6
			c-0.9-0.2-1.7-0.3-2.6-0.3c-1.8,0-2.7,0.5-2.7,1.5c0,0.2,0,0.4,0.1,0.6c0.1,0.2,0.3,0.4,0.5,0.5c0.3,0.2,0.6,0.4,0.9,0.5
			c0.4,0.2,0.9,0.4,1.5,0.6c1.1,0.4,2.1,0.8,3.1,1.4c0.7,0.4,1.4,0.9,1.9,1.5c0.5,0.5,0.8,1.1,1,1.7c0.2,0.7,0.3,1.5,0.3,2.2
			c0.1,1.8-0.7,3.5-2.2,4.5c-1.9,1.1-4.1,1.6-6.3,1.5c-1.5,0-3-0.1-4.4-0.5c-0.8-0.2-1.7-0.5-2.4-0.8l1-4.6c1,0.4,2,0.7,3,0.9
			C63.8,25.8,64.8,25.9,65.7,26z"/>
		<path class="st0" d="M82.7,4.3c0.1,0.9-0.3,1.8-1,2.5c-0.6,0.6-1.5,0.9-2.4,0.9s-1.7-0.3-2.4-0.9s-1-1.5-1-2.4s0.3-1.8,1-2.5
			C77.6,1.3,78.4,1,79.3,1s1.7,0.3,2.4,0.9C82.4,2.4,82.8,3.3,82.7,4.3z M82.2,30h-5.7V10h5.7V30z"/>
		<path class="st0" d="M104.3,20c0,1.5-0.2,2.9-0.7,4.3c-0.4,1.2-1.1,2.4-2,3.4c-0.9,0.9-1.9,1.7-3.1,2.1c-1.3,0.5-2.7,0.8-4.1,0.8
			c-1.4,0-2.7-0.2-4-0.8c-1.2-0.5-2.2-1.2-3.1-2.1c-0.9-1-1.6-2.1-2-3.4c-0.5-1.4-0.7-2.8-0.7-4.3s0.2-2.9,0.7-4.3
			c0.4-1.2,1.1-2.4,2-3.3s1.9-1.6,3.1-2.1c1.2-0.5,2.6-0.8,3.9-0.8c1.4,0,2.7,0.2,4,0.8c1.2,0.5,2.2,1.2,3.1,2.1
			c0.9,1,1.6,2.1,2,3.3C104,17.1,104.3,18.5,104.3,20z M98.5,20c0.1-1.4-0.3-2.9-1.1-4.1c-0.7-1-1.8-1.6-3-1.5c-1.2,0-2.3,0.5-3,1.5
			c-0.8,1.2-1.1,2.7-1.1,4.1c-0.1,1.5,0.3,2.9,1.1,4.1c0.7,1,1.8,1.6,3,1.5c1.2,0.1,2.3-0.5,3-1.5C98.2,22.9,98.6,21.4,98.5,20z"/>
		<path class="st1" d="M113.5,9.6c1.1,0,2.3,0.2,3.3,0.6c0.9,0.3,1.6,0.9,2.2,1.5c0.6,0.7,1,1.5,1.2,2.4c0.3,1,0.4,1.9,0.4,2.9v12.5
			c-0.4,0.1-0.7,0.2-1.1,0.2c-0.5,0.1-1.1,0.2-1.7,0.3s-1.4,0.2-2.1,0.2s-1.6,0.1-2.4,0.1c-1,0-2-0.1-2.9-0.4
			c-0.8-0.2-1.6-0.6-2.3-1.1s-1.2-1.1-1.6-1.9c-0.4-0.9-0.6-1.9-0.6-2.9s0.2-1.9,0.6-2.8c0.4-0.8,1-1.4,1.7-1.9
			c0.8-0.5,1.7-0.9,2.7-1.1c1.1-0.2,2.2-0.4,3.4-0.4c0.4,0,0.7,0,1.1,0.1c0.4,0,0.8,0.1,1.1,0.1s0.7,0.1,1,0.2
			c0.2,0,0.4,0.1,0.6,0.2v-1.3c0-0.7-0.1-1.3-0.1-2c-0.1-0.6-0.3-1.2-0.7-1.8s-0.9-1-1.5-1.3c-0.8-0.4-1.6-0.5-2.5-0.5
			c-1.1,0-2.2,0.1-3.3,0.3c-0.7,0.2-1.2,0.4-1.6,0.5l-0.4-2.2c0.6-0.3,1.3-0.5,2-0.6C111.2,9.7,112.3,9.6,113.5,9.6z M113.7,28.2
			c1,0,1.8,0,2.6-0.1c0.6,0,1.2-0.1,1.9-0.2v-7c-0.4-0.2-0.9-0.3-1.3-0.4c-0.8-0.2-1.7-0.2-2.6-0.2c-0.6,0-1.3,0.1-1.9,0.1
			c-0.6,0.1-1.3,0.3-1.9,0.6c-0.5,0.3-1,0.7-1.4,1.2c-0.4,0.6-0.6,1.3-0.5,2c0,0.7,0.1,1.3,0.4,1.9c0.2,0.5,0.6,0.9,1,1.2
			c0.5,0.3,1,0.6,1.6,0.7C112.2,28.2,113,28.2,113.7,28.2z"/>
		<path class="st1" d="M129.2,28.2c1.2,0,2.4-0.2,3.6-0.7c0.9-0.4,1.5-1.4,1.4-2.4c0-0.5-0.1-0.9-0.2-1.4c-0.2-0.4-0.5-0.7-0.8-1
			c-0.5-0.4-1-0.7-1.5-0.9c-0.6-0.3-1.4-0.6-2.3-1c-0.8-0.3-1.5-0.6-2.1-1c-0.6-0.3-1.2-0.7-1.8-1.1c-0.5-0.4-0.9-0.9-1.2-1.5
			c-0.3-0.7-0.5-1.4-0.5-2.1c-0.1-1.5,0.6-3,1.8-4c1.4-1.1,3.2-1.6,5-1.5c1.1,0,2.3,0.1,3.4,0.4c0.6,0.1,1.3,0.4,1.9,0.6l-0.6,2.2
			c-0.3-0.1-0.8-0.4-1.6-0.6c-1-0.3-2.1-0.4-3.2-0.4c-0.5,0-1.1,0.1-1.6,0.2c-0.5,0.1-0.9,0.3-1.3,0.5c-0.4,0.2-0.7,0.6-0.9,0.9
			c-0.2,0.4-0.4,0.9-0.4,1.4s0.1,1,0.3,1.4s0.5,0.7,0.9,1c0.5,0.3,1,0.6,1.5,0.8c0.6,0.3,1.2,0.5,2,0.9s1.5,0.6,2.2,0.9
			s1.3,0.7,1.9,1.1c0.5,0.4,1,1,1.3,1.6c0.4,0.7,0.5,1.6,0.5,2.4c0.1,1.6-0.7,3.2-2,4.1c-1.7,1-3.6,1.5-5.5,1.4
			c-1.3,0.1-2.7-0.1-4-0.4c-0.6-0.2-1.2-0.4-1.9-0.7l0.6-2.2c0.2,0.1,0.3,0.2,0.5,0.2c0.3,0.1,0.7,0.3,1,0.4
			c0.5,0.2,1.1,0.3,1.6,0.4C127.8,28.2,128.5,28.3,129.2,28.2z"/>
		<path class="st1" d="M142,10.1h7.9v2.1H142v10.6c0,0.9,0.1,1.9,0.3,2.8c0.1,0.6,0.4,1.2,0.8,1.6c0.4,0.4,0.8,0.6,1.3,0.8
			c0.6,0.1,1.1,0.2,1.7,0.2c0.9,0,1.7-0.1,2.5-0.4c0.5-0.2,1-0.4,1.5-0.7l0.6,2.1c-0.6,0.3-1.2,0.6-1.9,0.8
			c-0.9,0.3-1.9,0.5-2.9,0.5c-1.1,0-2.1-0.1-3.1-0.5c-0.8-0.3-1.5-0.8-2-1.5s-0.9-1.6-1.1-2.5c-0.2-1.1-0.3-2.3-0.3-3.5V4.2l2.5-0.5
			L142,10.1z"/>
		<path class="st1" d="M151.5,20c0-1.6,0.2-3.1,0.8-4.6c0.5-1.2,1.1-2.3,2-3.3c0.8-0.8,1.7-1.5,2.8-1.9c1-0.4,2.1-0.6,3.2-0.6
			c2.2-0.1,4.3,0.8,5.8,2.4c1.4,1.6,2.2,4.1,2.2,7.4V20l-0.1,0.6h-14c-0.1,2,0.6,4,1.8,5.6c1.1,1.3,2.9,2,5.4,2
			c1.1,0,2.2-0.1,3.2-0.4c0.6-0.2,1.1-0.4,1.7-0.7l0.5,2.2c-0.6,0.3-1.3,0.6-2,0.7c-1.1,0.3-2.3,0.4-3.5,0.4c-1.5,0-3-0.2-4.5-0.8
			c-1.2-0.5-2.2-1.2-3-2.2s-1.4-2.1-1.7-3.3C151.7,22.9,151.5,21.4,151.5,20z M165.6,18.5c0.1-1.7-0.5-3.4-1.5-4.9
			c-1-1.2-2.4-1.8-3.9-1.7c-0.8,0-1.7,0.2-2.4,0.5c-0.7,0.4-1.3,0.8-1.8,1.4c-0.5,0.6-1,1.3-1.2,2.1c-0.3,0.8-0.5,1.7-0.5,2.5h11.3
			V18.5z"/>
		<path class="st1" d="M171.1,10.8c0.7-0.2,1.7-0.4,3-0.7c1.5-0.3,3.1-0.4,4.6-0.4c1.3,0,2.6,0.2,3.8,0.6c1,0.4,1.8,1,2.4,1.9
			c0.6,0.9,1.1,1.8,1.3,2.9c0.3,1.2,0.4,2.5,0.4,3.7V30h-2.5V19.7c0-1.2-0.1-2.4-0.3-3.6c-0.2-0.9-0.5-1.7-1-2.4
			c-0.4-0.6-1.1-1.1-1.8-1.3c-0.9-0.3-1.8-0.4-2.8-0.4s-2,0.1-3.1,0.2c-0.6,0.1-1.1,0.2-1.7,0.3V30h-2.5L171.1,10.8z"/>
		<path class="st1" d="M204.7,10.8c0.7-0.2,1.8-0.4,3-0.7c1.5-0.3,3.1-0.4,4.6-0.4c1.3,0,2.6,0.2,3.8,0.6c1,0.4,1.8,1,2.4,1.9
			c0.6,0.9,1.1,1.8,1.3,2.9c0.3,1.2,0.4,2.5,0.4,3.7V30h-2.4V19.7c0-1.2-0.1-2.4-0.3-3.6c-0.2-0.9-0.5-1.7-1-2.4
			c-0.4-0.6-1.1-1.1-1.8-1.3c-0.9-0.3-1.8-0.4-2.8-0.4s-2.1,0.1-3.1,0.2c-0.6,0.1-1.1,0.2-1.7,0.3V30h-2.5L204.7,10.8z"/>
		<path class="st1" d="M224.7,10.8c0.8-0.2,1.8-0.4,3-0.7c1.5-0.3,3.1-0.4,4.6-0.4c1.3,0,2.6,0.2,3.8,0.6c1,0.4,1.8,1,2.4,1.9
			s1.1,1.8,1.3,2.9c0.3,1.2,0.4,2.5,0.4,3.7V30h-2.5V19.7c0-1.2-0.1-2.4-0.3-3.6c-0.2-0.9-0.5-1.7-1-2.4c-0.4-0.6-1.1-1.1-1.8-1.3
			c-0.9-0.3-1.8-0.4-2.8-0.4s-2,0.1-3.1,0.2c-0.6,0.1-1.1,0.2-1.7,0.3V30h-2.5L224.7,10.8z"/>
		<path class="st1" d="M249.7,19.2c1,0.7,1.9,1.4,2.8,2.2c0.9,0.8,1.8,1.7,2.7,2.7c0.9,1,1.7,2,2.6,3c0.9,1,1.5,2,2,2.9h-3
			c-0.6-1.1-1.3-2.1-2.1-3c-0.8-1-1.6-1.9-2.5-2.8s-1.8-1.6-2.6-2.4c-0.7-0.6-1.5-1.1-2.3-1.6v9.7h-2.5V0.6l2.4-0.5v18.6
			c0.5-0.5,1.2-1.1,2-1.9s1.6-1.6,2.5-2.4s1.6-1.6,2.3-2.3s1.4-1.4,1.9-2h3c-0.6,0.6-1.3,1.3-2,2.1l-2.4,2.4
			c-0.8,0.8-1.6,1.6-2.4,2.4C251.3,17.8,250.5,18.5,249.7,19.2z"/>
		<polygon class="st0" points="190,30 192.5,30 203,0.1 200.5,0.1 		"/>
	</g>
</g>
</svg>
