<svg xmlns="http://www.w3.org/2000/svg" viewBox="0 0 162.32 36.94"><defs><style>.cls-1{fill:#96c11f;}.cls-2{fill:#1c1c1c;}</style></defs><g id="Ebene_2" data-name="Ebene 2"><g id="Ebene_1-2" data-name="Ebene 1"><path class="cls-1" d="M18.58,19.92A14.7,14.7,0,0,1,18,24.14a9.57,9.57,0,0,1-1.67,3.26,7.37,7.37,0,0,1-2.74,2.13,8.77,8.77,0,0,1-3.76.76,9.64,9.64,0,0,1-2.2-.23,10.18,10.18,0,0,1-2-.64v7.52H0V10.61c.51-.15,1.09-.3,1.75-.44s1.35-.26,2.07-.36S5.28,9.63,6,9.56s1.47-.09,2.15-.09a12.14,12.14,0,0,1,4.41.74,8.69,8.69,0,0,1,5.3,5.38A12.57,12.57,0,0,1,18.58,19.92Zm-5.77.15a6.88,6.88,0,0,0-1.18-4.2,4.1,4.1,0,0,0-3.5-1.58c-.51,0-1,0-1.4.06s-.79.08-1.07.13V24.71a5.55,5.55,0,0,0,1.39.57,6.78,6.78,0,0,0,1.73.22C11.46,25.5,12.81,23.69,12.81,20.07Z"/><path class="cls-1" d="M21.05,29.91V1.34L26.71.42V10a10.54,10.54,0,0,1,1.47-.36,8.67,8.67,0,0,1,1.73-.17,10.7,10.7,0,0,1,4,.66A6.37,6.37,0,0,1,36.54,12a7.45,7.45,0,0,1,1.37,2.89,16.5,16.5,0,0,1,.39,3.73V29.91H32.64V19.31a7.83,7.83,0,0,0-.7-3.88,2.81,2.81,0,0,0-2.6-1.14,7.15,7.15,0,0,0-1.43.14c-.44.09-.84.18-1.2.28v15.2Z"/><path class="cls-1" d="M58.71,9.92Q57,15.7,55.13,20.75c-1.25,3.37-2.6,6.64-4.08,9.81a20.5,20.5,0,0,1-1.6,2.9,8.73,8.73,0,0,1-1.75,2,6.1,6.1,0,0,1-2.15,1.14,9.74,9.74,0,0,1-2.79.36,11.14,11.14,0,0,1-2.46-.25,9.75,9.75,0,0,1-1.84-.55l1-4.52A10.9,10.9,0,0,0,41,32a8.45,8.45,0,0,0,1.45.11,3.2,3.2,0,0,0,2.34-.81,6.7,6.7,0,0,0,1.38-2.26q-1.94-3.81-3.88-8.54A106.26,106.26,0,0,1,38.65,9.92h6q.38,1.49.9,3.21c.34,1.16.7,2.32,1.08,3.5S47.4,19,47.8,20.07s.77,2.13,1.12,3c.33-.91.68-1.93,1-3s.7-2.26,1-3.44.68-2.34,1-3.5.6-2.22.85-3.21Z"/><path class="cls-1" d="M65.55,25.85a5.65,5.65,0,0,0,2.2-.31,1.17,1.17,0,0,0,.65-1.18,1.44,1.44,0,0,0-.84-1.19A14.76,14.76,0,0,0,65,22a25.52,25.52,0,0,1-2.42-1,7.14,7.14,0,0,1-1.84-1.27,5.14,5.14,0,0,1-1.18-1.77,6.52,6.52,0,0,1-.41-2.47A5.32,5.32,0,0,1,61.26,11,9.06,9.06,0,0,1,67,9.39a18.82,18.82,0,0,1,3.5.32,16.14,16.14,0,0,1,2.66.71l-1,4.41A20.58,20.58,0,0,0,70,14.22a11.47,11.47,0,0,0-2.6-.27c-1.77,0-2.66.5-2.66,1.48a1.48,1.48,0,0,0,.12.61,1.17,1.17,0,0,0,.45.51,6.06,6.06,0,0,0,.93.54q.6.29,1.5.63a22.82,22.82,0,0,1,3.08,1.36,7.41,7.41,0,0,1,1.92,1.45,4.47,4.47,0,0,1,1,1.72,7.73,7.73,0,0,1,.28,2.2,5.08,5.08,0,0,1-2.22,4.48,11.1,11.1,0,0,1-6.29,1.51A18.36,18.36,0,0,1,61.08,30a20,20,0,0,1-2.45-.76l.95-4.6a18.12,18.12,0,0,0,3,.89A14.06,14.06,0,0,0,65.55,25.85Z"/><path class="cls-1" d="M82.54,4.15a3.12,3.12,0,0,1-1,2.45,3.61,3.61,0,0,1-4.75,0,3.12,3.12,0,0,1-1-2.45,3.1,3.1,0,0,1,1-2.45,3.58,3.58,0,0,1,4.75,0A3.1,3.1,0,0,1,82.54,4.15ZM82,29.91H76.34v-20H82Z"/><path class="cls-1" d="M104.12,19.88a12.86,12.86,0,0,1-.69,4.31,9.32,9.32,0,0,1-2,3.35,8.88,8.88,0,0,1-3.1,2.14,10.26,10.26,0,0,1-4,.76,10.15,10.15,0,0,1-4-.76,8.79,8.79,0,0,1-3.1-2.14,9.85,9.85,0,0,1-2-3.35,12.15,12.15,0,0,1-.73-4.31,12,12,0,0,1,.74-4.29,9.68,9.68,0,0,1,2.06-3.31,9.27,9.27,0,0,1,3.11-2.13,10.16,10.16,0,0,1,3.93-.76,10.3,10.3,0,0,1,4,.76,9.09,9.09,0,0,1,3.09,2.13,9.59,9.59,0,0,1,2,3.31A12.22,12.22,0,0,1,104.12,19.88Zm-5.78,0a7.15,7.15,0,0,0-1-4.12,3.42,3.42,0,0,0-3-1.5,3.47,3.47,0,0,0-3,1.5,7,7,0,0,0-1.06,4.12A7.2,7.2,0,0,0,91.31,24a3.43,3.43,0,0,0,3,1.54,3.39,3.39,0,0,0,3-1.54A7.36,7.36,0,0,0,98.34,19.88Z"/><path class="cls-2" d="M107.24,10.68c.75-.21,1.75-.44,3-.7a24.19,24.19,0,0,1,4.63-.38,9.73,9.73,0,0,1,3.79.65,5.8,5.8,0,0,1,2.43,1.87A7.74,7.74,0,0,1,122.39,15a16.71,16.71,0,0,1,.39,3.74V29.91h-2.51V19.58A18.21,18.21,0,0,0,120,16a5.87,5.87,0,0,0-1-2.39,3.73,3.73,0,0,0-1.77-1.33,8.11,8.11,0,0,0-2.76-.41,22.34,22.34,0,0,0-3.06.19,9.63,9.63,0,0,0-1.68.35v17.5h-2.51Z"/><path class="cls-2" d="M127.25,10.68c.74-.21,1.75-.44,3-.7a24.26,24.26,0,0,1,4.63-.38,9.78,9.78,0,0,1,3.8.65,5.93,5.93,0,0,1,2.43,1.87A7.74,7.74,0,0,1,142.4,15a17.34,17.34,0,0,1,.38,3.74V29.91h-2.5V19.58A19,19,0,0,0,140,16a6,6,0,0,0-1-2.39,3.73,3.73,0,0,0-1.77-1.33,8,8,0,0,0-2.75-.41,22.39,22.39,0,0,0-3.07.19,9.86,9.86,0,0,0-1.68.35v17.5h-2.5Z"/><path class="cls-2" d="M152.26,19.06A27.89,27.89,0,0,1,155,21.28c.93.84,1.84,1.74,2.74,2.72s1.75,2,2.54,3a34.15,34.15,0,0,1,2,2.9h-3a24.53,24.53,0,0,0-2.1-3,34.59,34.59,0,0,0-2.5-2.75c-.88-.86-1.75-1.64-2.63-2.35a15.06,15.06,0,0,0-2.32-1.6v9.68h-2.51V.46L149.76,0V18.57c.53-.46,1.2-1.09,2-1.88l2.45-2.39c.83-.81,1.61-1.58,2.35-2.34s1.36-1.41,1.86-2h3.06c-.59.62-1.27,1.31-2,2.06l-2.39,2.35-2.45,2.41C153.81,17.59,153,18.35,152.26,19.06Z"/></g></g></svg>