<svg xmlns="http://www.w3.org/2000/svg" viewBox="0 0 186.46 36.52"><defs><style>.cls-1{fill:#96c11f;}.cls-2{fill:#1c1c1c;}</style></defs><g id="Ebene_2" data-name="Ebene 2"><g id="Ebene_1-2" data-name="Ebene 1"><path class="cls-1" d="M18.58,19.49A14.6,14.6,0,0,1,18,23.71,9.53,9.53,0,0,1,16.34,27a7.58,7.58,0,0,1-2.74,2.13,8.92,8.92,0,0,1-3.76.76,10.24,10.24,0,0,1-2.2-.23,11.16,11.16,0,0,1-2-.64v7.52H0V10.18c.51-.15,1.09-.29,1.75-.43s1.35-.26,2.07-.36S5.28,9.2,6,9.14,7.49,9,8.17,9a12.13,12.13,0,0,1,4.41.75,8.71,8.71,0,0,1,5.3,5.37A12.61,12.61,0,0,1,18.58,19.49Zm-5.77.16a6.88,6.88,0,0,0-1.18-4.2,4.1,4.1,0,0,0-3.5-1.58c-.5,0-1,0-1.4.06s-.79.08-1.07.13V24.28a4.89,4.89,0,0,0,1.39.57,6.8,6.8,0,0,0,1.73.23C11.46,25.08,12.81,23.27,12.81,19.65Z"/><path class="cls-1" d="M21.05,29.49V.91L26.71,0V9.58a10.54,10.54,0,0,1,1.47-.36A8.69,8.69,0,0,1,29.91,9a10.69,10.69,0,0,1,4,.67,6.28,6.28,0,0,1,2.59,1.88,7.38,7.38,0,0,1,1.37,2.89,16.34,16.34,0,0,1,.39,3.72V29.49H32.64V18.89a7.8,7.8,0,0,0-.7-3.88,2.81,2.81,0,0,0-2.6-1.14,7.17,7.17,0,0,0-1.43.13c-.44.09-.84.19-1.2.29v15.2Z"/><path class="cls-1" d="M58.71,9.5Q57,15.27,55.13,20.33t-4.08,9.81A22.91,22.91,0,0,1,49.46,33a9,9,0,0,1-1.76,2,6.1,6.1,0,0,1-2.15,1.14,9.74,9.74,0,0,1-2.79.36,11.14,11.14,0,0,1-2.46-.25,10.55,10.55,0,0,1-1.84-.55l1-4.52a10.47,10.47,0,0,0,1.55.42,9.59,9.59,0,0,0,1.45.11,3.16,3.16,0,0,0,2.34-.82,6.6,6.6,0,0,0,1.38-2.26q-1.94-3.79-3.87-8.53A103.69,103.69,0,0,1,38.65,9.5h6c.26,1,.55,2.06.9,3.21s.7,2.32,1.09,3.5.77,2.32,1.16,3.44.77,2.12,1.13,3c.33-.92.67-1.93,1-3s.7-2.26,1-3.44.67-2.35,1-3.5.6-2.22.86-3.21Z"/><path class="cls-1" d="M65.55,25.42a5.78,5.78,0,0,0,2.21-.3,1.17,1.17,0,0,0,.64-1.18,1.47,1.47,0,0,0-.83-1.2A17.16,17.16,0,0,0,65,21.58a24.29,24.29,0,0,1-2.41-1,7.28,7.28,0,0,1-1.85-1.27,5.21,5.21,0,0,1-1.17-1.77,6.55,6.55,0,0,1-.42-2.47,5.33,5.33,0,0,1,2.09-4.45A9.07,9.07,0,0,1,67,9a18.79,18.79,0,0,1,3.49.32,17,17,0,0,1,2.66.7l-1,4.41A21.09,21.09,0,0,0,70,13.79a12.2,12.2,0,0,0-2.61-.26c-1.77,0-2.66.49-2.66,1.48a1.48,1.48,0,0,0,.12.61,1.24,1.24,0,0,0,.45.51,6.06,6.06,0,0,0,.93.54c.4.19.9.4,1.51.63a22.63,22.63,0,0,1,3.07,1.36,7.41,7.41,0,0,1,1.92,1.45,4.4,4.4,0,0,1,1,1.72A7.67,7.67,0,0,1,74,24,5.07,5.07,0,0,1,71.8,28.5,11.09,11.09,0,0,1,65.51,30a18.22,18.22,0,0,1-4.42-.45,17,17,0,0,1-2.45-.77l1-4.59a19,19,0,0,0,3,.89A14,14,0,0,0,65.55,25.42Z"/><path class="cls-1" d="M82.54,3.72a3.14,3.14,0,0,1-1,2.46,3.61,3.61,0,0,1-4.75,0,3.14,3.14,0,0,1-1-2.46,3.13,3.13,0,0,1,1-2.45,3.61,3.61,0,0,1,4.75,0A3.13,3.13,0,0,1,82.54,3.72ZM82,29.49H76.34V9.5H82Z"/><path class="cls-1" d="M104.12,19.46a13.12,13.12,0,0,1-.68,4.31,9.35,9.35,0,0,1-2,3.34,8.74,8.74,0,0,1-3.09,2.15,10.33,10.33,0,0,1-4.05.76,10.16,10.16,0,0,1-4-.76,8.77,8.77,0,0,1-3.1-2.15,9.71,9.71,0,0,1-2-3.34,12.37,12.37,0,0,1-.72-4.31,11.84,11.84,0,0,1,.74-4.3,9.55,9.55,0,0,1,2-3.3,8.93,8.93,0,0,1,3.12-2.13A9.94,9.94,0,0,1,94.32,9a10.07,10.07,0,0,1,4,.76,9,9,0,0,1,3.1,2.13,9.62,9.62,0,0,1,2,3.3A12.28,12.28,0,0,1,104.12,19.46Zm-5.77,0a7.11,7.11,0,0,0-1-4.13,3.42,3.42,0,0,0-3-1.5,3.45,3.45,0,0,0-3,1.5,7,7,0,0,0-1.07,4.13,7.22,7.22,0,0,0,1.07,4.16,3.67,3.67,0,0,0,6,0A7.3,7.3,0,0,0,98.35,19.46Z"/><path class="cls-2" d="M113.3,9.1a8.65,8.65,0,0,1,3.33.56,5.71,5.71,0,0,1,2.22,1.54,6,6,0,0,1,1.23,2.33,10.54,10.54,0,0,1,.39,2.93V29c-.26.07-.63.16-1.12.25l-1.7.29c-.64.1-1.35.18-2.13.25s-1.59.09-2.41.09a11.5,11.5,0,0,1-2.91-.34,6.65,6.65,0,0,1-2.32-1.1,5.24,5.24,0,0,1-1.54-1.93,6.67,6.67,0,0,1-.56-2.87,5.85,5.85,0,0,1,.62-2.78A5.36,5.36,0,0,1,108.13,19a7.88,7.88,0,0,1,2.66-1.09,14.81,14.81,0,0,1,3.36-.35,11.13,11.13,0,0,1,1.13.06c.4,0,.79.09,1.16.15l1,.19a3.34,3.34,0,0,1,.56.18V16.88a13.43,13.43,0,0,0-.15-2,4.46,4.46,0,0,0-.67-1.77,3.84,3.84,0,0,0-1.47-1.28,5.52,5.52,0,0,0-2.49-.48,13.07,13.07,0,0,0-3.27.31c-.72.21-1.25.37-1.58.5L108,10a9.08,9.08,0,0,1,2-.58A17.36,17.36,0,0,1,113.3,9.1Zm.23,18.58c1,0,1.83,0,2.56-.1a16.8,16.8,0,0,0,1.87-.25v-7a7.23,7.23,0,0,0-1.35-.41,12,12,0,0,0-2.54-.21,14.44,14.44,0,0,0-1.93.13,5.72,5.72,0,0,0-1.85.58,3.89,3.89,0,0,0-1.39,1.22,3.47,3.47,0,0,0-.53,2,4.49,4.49,0,0,0,.36,1.89,3.12,3.12,0,0,0,1,1.23,4.77,4.77,0,0,0,1.62.68A9.88,9.88,0,0,0,113.53,27.68Z"/><path class="cls-2" d="M129,27.72a7.81,7.81,0,0,0,3.56-.72A2.48,2.48,0,0,0,134,24.59a3.54,3.54,0,0,0-.25-1.38,2.82,2.82,0,0,0-.83-1.05,7.45,7.45,0,0,0-1.52-.88c-.63-.28-1.41-.62-2.34-1-.74-.31-1.45-.63-2.12-1a8.47,8.47,0,0,1-1.77-1.12,4.91,4.91,0,0,1-1.23-1.52,4.6,4.6,0,0,1-.47-2.16,4.82,4.82,0,0,1,1.84-3.93,7.7,7.7,0,0,1,5-1.5,13.77,13.77,0,0,1,3.37.34,11.34,11.34,0,0,1,1.87.62L135,12.3a14.57,14.57,0,0,0-1.56-.62,10.21,10.21,0,0,0-3.22-.38,6.83,6.83,0,0,0-1.6.17,4.27,4.27,0,0,0-1.33.54,2.82,2.82,0,0,0-.92.93,2.47,2.47,0,0,0-.35,1.37,2.88,2.88,0,0,0,.31,1.39,3,3,0,0,0,.9,1,7.7,7.7,0,0,0,1.47.83q.87.39,2,.84c.77.31,1.51.62,2.22.94a8.1,8.1,0,0,1,1.87,1.16,5.28,5.28,0,0,1,1.31,1.62,5.07,5.07,0,0,1,.5,2.37,4.61,4.61,0,0,1-2,4.08A9.63,9.63,0,0,1,129,30a12.4,12.4,0,0,1-5.86-1.12l.65-2.27.5.25c.26.11.61.24,1,.39a11.36,11.36,0,0,0,1.56.36A12,12,0,0,0,129,27.72Z"/><path class="cls-2" d="M141.86,9.56h7.94v2.12h-7.94v10.6a10.94,10.94,0,0,0,.29,2.76,3.79,3.79,0,0,0,.83,1.63,2.64,2.64,0,0,0,1.31.78,6.91,6.91,0,0,0,1.7.19,7.14,7.14,0,0,0,2.54-.37,11.42,11.42,0,0,0,1.5-.67l.62,2.08a8.85,8.85,0,0,1-1.89.79,9.47,9.47,0,0,1-2.93.44,8.7,8.7,0,0,1-3.1-.48,4.46,4.46,0,0,1-2-1.46,6,6,0,0,1-1.07-2.45,17.51,17.51,0,0,1-.3-3.47V3.7l2.5-.46Z"/><path class="cls-2" d="M151.31,19.5a12.63,12.63,0,0,1,.75-4.56,10,10,0,0,1,2-3.26,7.9,7.9,0,0,1,2.78-1.95A8.51,8.51,0,0,1,160,9.1a7.51,7.51,0,0,1,5.84,2.39Q168,13.88,168,18.85c0,.21,0,.41,0,.62s0,.4-.06.57H154a8.76,8.76,0,0,0,1.81,5.63q1.69,2,5.39,2a10.78,10.78,0,0,0,3.24-.39,12.62,12.62,0,0,0,1.74-.65l.46,2.16a10.86,10.86,0,0,1-2,.73,12.93,12.93,0,0,1-3.49.42,11.47,11.47,0,0,1-4.47-.77,7.91,7.91,0,0,1-3-2.16,8.46,8.46,0,0,1-1.74-3.29A15.81,15.81,0,0,1,151.31,19.5Zm14.14-1.58A7.91,7.91,0,0,0,164,13.07a4.75,4.75,0,0,0-3.93-1.74,5.21,5.21,0,0,0-2.41.54,6.07,6.07,0,0,0-1.85,1.45,6.67,6.67,0,0,0-1.24,2.1,8.77,8.77,0,0,0-.52,2.5Z"/><path class="cls-2" d="M170.93,10.25q1.11-.3,3-.69a23.32,23.32,0,0,1,4.63-.39,9.54,9.54,0,0,1,3.79.66,5.8,5.8,0,0,1,2.43,1.87,7.44,7.44,0,0,1,1.29,2.91,16.71,16.71,0,0,1,.39,3.74V29.49H184V19.16a19.22,19.22,0,0,0-.28-3.59,6.15,6.15,0,0,0-1-2.39,3.8,3.8,0,0,0-1.77-1.33,8.09,8.09,0,0,0-2.76-.4,20.85,20.85,0,0,0-3.06.19,9.86,9.86,0,0,0-1.68.35v17.5h-2.5Z"/></g></g></svg>