<svg width="60" height="44" viewBox="0 0 60 44" fill="none" xmlns="http://www.w3.org/2000/svg">
<g clip-path="url(#clip0_2_75)">
<path d="M3.65909 22.7273C3.65909 19.6591 4.01894 16.5862 4.73864 13.5085C5.45833 10.4309 6.5 7.44318 7.86364 4.54545H8.82955C8.11932 6.01326 7.49905 7.5 6.96875 9.00568C6.43845 10.5114 5.99337 12.0312 5.63352 13.5653C5.28314 15.09 5.01799 16.6193 4.83807 18.1534C4.65814 19.678 4.56818 21.2027 4.56818 22.7273C4.56818 24.7727 4.72917 26.8182 5.05114 28.8636C5.37311 30.9091 5.85133 32.9403 6.4858 34.9574C7.12027 36.9744 7.90152 38.9583 8.82955 40.9091H7.86364C6.5 37.983 5.45833 34.9811 4.73864 31.9034C4.01894 28.8258 3.65909 25.767 3.65909 22.7273Z" fill="black"/>
<path d="M56.9545 22.7273C56.9545 25.7955 56.5947 28.8684 55.875 31.946C55.1553 35.0237 54.1136 38.0114 52.75 40.9091H51.7841C52.4943 39.4413 53.1146 37.9545 53.6449 36.4489C54.1752 34.9432 54.6155 33.428 54.9659 31.9034C55.3258 30.3693 55.5956 28.84 55.7756 27.3153C55.9555 25.7812 56.0455 24.2519 56.0455 22.7273C56.0455 20.6818 55.8845 18.6364 55.5625 16.5909C55.2405 14.5455 54.7623 12.5142 54.1278 10.4972C53.5028 8.48011 52.7216 6.49621 51.7841 4.54545H52.75C54.1136 7.47159 55.1553 10.4735 55.875 13.5511C56.5947 16.6288 56.9545 19.6875 56.9545 22.7273Z" fill="black"/>
<path d="M8 19.6066L18.6066 9M18.6066 9L29.3137 20.2132M18.6066 9L18.5 36" stroke="url(#paint0_linear_2_75)"/>
<path d="M31 20.6066L41.6066 10M41.6066 10L52.3137 21.2132M41.6066 10L41.5 37" stroke="url(#paint1_linear_2_75)"/>
</g>
<defs>
<linearGradient id="paint0_linear_2_75" x1="18.6569" y1="9" x2="18.6569" y2="36" gradientUnits="userSpaceOnUse">
<stop stop-color="#00F0FF"/>
<stop offset="1" stop-color="#FC71FF"/>
</linearGradient>
<linearGradient id="paint1_linear_2_75" x1="41.6569" y1="10" x2="41.6569" y2="37" gradientUnits="userSpaceOnUse">
<stop stop-color="#00F0FF"/>
<stop offset="1" stop-color="#FC71FF"/>
</linearGradient>
<clipPath id="clip0_2_75">
<rect width="60" height="44" fill="white"/>
</clipPath>
</defs>
</svg>
