<svg width="236" height="32" viewBox="0 0 236 32" fill="none" xmlns="http://www.w3.org/2000/svg">
<path d="M17.6591 9.18183C17.4981 7.56251 16.7831 6.27463 15.5142 5.31819C14.2453 4.36176 12.6496 3.88354 10.7273 3.88354C9.37309 3.88354 8.17991 4.11554 7.14772 4.57956C6.12499 5.04357 5.32006 5.68751 4.73294 6.51138C4.15529 7.32577 3.86647 8.2538 3.86647 9.29547C3.86647 10.0625 4.03219 10.7349 4.36363 11.3125C4.69506 11.8902 5.14014 12.3873 5.69885 12.804C6.26703 13.2112 6.89203 13.5616 7.57385 13.8551C8.26514 14.1487 8.96116 14.3949 9.66192 14.5938L12.7301 15.4744C13.6581 15.7301 14.5862 16.0568 15.5142 16.4546C16.4422 16.8523 17.2898 17.3542 18.0568 17.9602C18.8333 18.5568 19.4536 19.2907 19.9176 20.1619C20.3911 21.0237 20.6278 22.0606 20.6278 23.2727C20.6278 24.8258 20.2254 26.2226 19.4204 27.4631C18.6155 28.7036 17.4602 29.6885 15.9545 30.4176C14.4489 31.1373 12.6449 31.4972 10.5426 31.4972C8.56344 31.4972 6.84469 31.1705 5.38635 30.5171C3.92802 29.8542 2.78219 28.9404 1.94885 27.7756C1.11552 26.6108 0.646769 25.2614 0.542603 23.7273H3.26988C3.36457 24.8731 3.74336 25.8438 4.40624 26.6392C5.06912 27.4347 5.93086 28.0407 6.99147 28.4574C8.05207 28.8646 9.23578 29.0682 10.5426 29.0682C11.9915 29.0682 13.2793 28.8267 14.4062 28.3438C15.5426 27.8513 16.4328 27.1695 17.0767 26.2983C17.7301 25.4176 18.0568 24.3949 18.0568 23.2301C18.0568 22.2453 17.8011 21.4214 17.2898 20.7585C16.7784 20.0862 16.0634 19.5227 15.1449 19.0682C14.2358 18.6137 13.1799 18.2112 11.9773 17.8608L8.49715 16.8381C6.21495 16.1563 4.44412 15.214 3.18465 14.0114C1.92518 12.8087 1.29544 11.2746 1.29544 9.4091C1.29544 7.8466 1.71211 6.4735 2.54544 5.28979C3.38825 4.09661 4.52461 3.16857 5.95453 2.50569C7.39393 1.83335 9.00851 1.49717 10.7983 1.49717C12.607 1.49717 14.2074 1.82861 15.5994 2.49149C16.9915 3.15437 18.0947 4.0682 18.9091 5.23297C19.7329 6.38827 20.1733 7.70456 20.2301 9.18183H17.6591Z" fill="black"/>
<path d="M48.8693 16.4546C48.8693 19.4849 48.3295 22.1222 47.25 24.3665C46.1704 26.6013 44.6837 28.3343 42.7898 29.5654C40.9053 30.7869 38.7367 31.3977 36.2841 31.3977C33.8314 31.3977 31.6581 30.7869 29.7642 29.5654C27.8797 28.3343 26.3977 26.6013 25.3182 24.3665C24.2481 22.1222 23.7131 19.4849 23.7131 16.4546C23.7131 13.4243 24.2481 10.7917 25.3182 8.55683C26.3977 6.31251 27.8845 4.57956 29.7784 3.35797C31.6723 2.12691 33.8409 1.51138 36.2841 1.51138C38.7367 1.51138 40.9053 2.12691 42.7898 3.35797C44.6837 4.57956 46.1704 6.31251 47.25 8.55683C48.3295 10.7917 48.8693 13.4243 48.8693 16.4546ZM46.2841 16.4546C46.2841 13.8504 45.8485 11.6203 44.9773 9.76422C44.106 7.89869 42.9176 6.4735 41.4119 5.48865C39.9062 4.5038 38.197 4.01138 36.2841 4.01138C34.3807 4.01138 32.6761 4.5038 31.1704 5.48865C29.6648 6.4735 28.4716 7.89395 27.5909 9.75001C26.7197 11.6061 26.2841 13.8409 26.2841 16.4546C26.2841 19.0587 26.7197 21.2888 27.5909 23.1449C28.4621 25.001 29.6506 26.4262 31.1562 27.4205C32.6619 28.4053 34.3712 28.8977 36.2841 28.8977C38.197 28.8977 39.9062 28.4053 41.4119 27.4205C42.9271 26.4356 44.1203 25.0152 44.9915 23.1591C45.8627 21.2936 46.2935 19.0587 46.2841 16.4546Z" fill="black"/>
<path d="M53.2933 1.9091H56.3615L66.9155 27.25H67.1712L77.7251 1.9091H80.7933V31H78.2933V7.5199H78.066L68.2507 31H65.8359L56.0206 7.5199H55.7933V31H53.2933V1.9091Z" fill="black"/>
<path d="M86.5703 31H83.7862L94.3686 1.9091H97.2095L107.792 31H105.008L95.8885 5.36081H95.6896L86.5703 31ZM88.5731 19.8494H103.005V22.2358H88.5731V19.8494Z" fill="black"/>
<path d="M127.028 9.18183C126.886 7.1932 126.123 5.55967 124.741 4.28126C123.368 3.00285 121.554 2.36365 119.3 2.36365C117.823 2.36365 116.502 2.64774 115.337 3.21592C114.173 3.7841 113.254 4.56535 112.582 5.55967C111.909 6.54452 111.573 7.67615 111.573 8.95456C111.573 9.6932 111.696 10.375 111.942 11C112.189 11.625 112.563 12.1979 113.065 12.7188C113.576 13.2301 114.215 13.6941 114.982 14.1108C115.759 14.518 116.668 14.8826 117.71 15.2046L121.005 16.2273C122.264 16.6155 123.353 17.0511 124.272 17.5341C125.191 18.0171 125.948 18.5616 126.545 19.1676C127.151 19.7642 127.601 20.4318 127.894 21.1705C128.188 21.8996 128.335 22.714 128.335 23.6137C128.335 25.1288 127.946 26.4782 127.17 27.6619C126.393 28.8457 125.309 29.7737 123.917 30.446C122.525 31.1184 120.91 31.4546 119.073 31.4546C117.302 31.4546 115.754 31.1468 114.428 30.5313C113.102 29.9063 112.051 29.0493 111.275 27.9602C110.508 26.8618 110.077 25.6023 109.982 24.1818H110.891C110.986 25.4318 111.379 26.5351 112.07 27.4915C112.762 28.4479 113.699 29.196 114.883 29.7358C116.076 30.2756 117.473 30.5455 119.073 30.5455C120.74 30.5455 122.198 30.2566 123.448 29.679C124.708 29.0919 125.683 28.2775 126.374 27.2358C127.075 26.1941 127.425 24.9868 127.425 23.6137C127.425 22.572 127.198 21.6582 126.744 20.8722C126.289 20.0767 125.574 19.376 124.599 18.7699C123.623 18.1638 122.35 17.6193 120.778 17.1364L117.482 16.1137C115.2 15.394 113.491 14.4422 112.354 13.2585C111.227 12.0748 110.664 10.6402 110.664 8.95456C110.664 7.52463 111.038 6.24623 111.786 5.11933C112.534 3.98297 113.557 3.08808 114.854 2.43467C116.161 1.78126 117.643 1.45456 119.3 1.45456C120.967 1.45456 122.43 1.786 123.69 2.44888C124.949 3.11176 125.948 4.02558 126.687 5.19035C127.425 6.35513 127.842 7.68562 127.937 9.18183H127.028Z" fill="black"/>
<path d="M131.679 31H130.713L141.111 1.9091H142.361L152.759 31H151.793L141.793 3.04547H141.679L131.679 31ZM134.974 20.2614H148.497V21.1705H134.974V20.2614Z" fill="black"/>
<path d="M158.937 31L150.925 1.9091H151.891L159.505 29.5796H159.619L167.005 1.9091H168.255L175.641 29.5796H175.755L183.369 1.9091H184.335L176.323 31H175.073L167.687 3.32956H167.573L160.187 31H158.937Z" fill="black"/>
<path d="M183.46 31H182.494L192.892 1.9091H194.142L204.54 31H203.574L193.574 3.04547H193.46L183.46 31ZM186.756 20.2614H200.278V21.1705H186.756V20.2614Z" fill="black"/>
<path d="M208 7.89256L213.682 2M213.682 2L219.418 8.22956M213.682 2L213.625 17" stroke="black" stroke-width="2"/>
<path d="M223 7.89256L228.682 2M228.682 2L234.418 8.22956M228.682 2L228.625 17" stroke="black" stroke-width="2"/>
</svg>
