<svg width="32" height="236" viewBox="0 0 32 236" fill="none" xmlns="http://www.w3.org/2000/svg">
<path d="M9.18629 218.297C7.56697 218.458 6.27909 219.173 5.32265 220.442C4.36621 221.711 3.88799 223.307 3.88799 225.229C3.88799 226.583 4.12 227.776 4.58401 228.808C5.04803 229.831 5.69197 230.636 6.51583 231.223C7.33023 231.801 8.25826 232.09 9.29992 232.09C10.067 232.09 10.7393 231.924 11.317 231.593C11.8946 231.261 12.3918 230.816 12.8084 230.257C13.2156 229.689 13.566 229.064 13.8596 228.382C14.1531 227.691 14.3994 226.995 14.5982 226.294L15.4789 223.226C15.7346 222.298 16.0613 221.37 16.459 220.442C16.8567 219.514 17.3586 218.666 17.9647 217.899C18.5613 217.123 19.2952 216.503 20.1664 216.039C21.0281 215.565 22.0651 215.328 23.2772 215.328C24.8302 215.328 26.227 215.731 27.4675 216.536C28.7081 217.341 29.6929 218.496 30.4221 220.002C31.1418 221.507 31.5016 223.311 31.5016 225.414C31.5016 227.393 31.1749 229.112 30.5215 230.57C29.8586 232.028 28.9448 233.174 27.78 234.007C26.6153 234.841 25.2658 235.309 23.7317 235.414V232.686C24.8776 232.592 25.8482 232.213 26.6437 231.55C27.4391 230.887 28.0452 230.025 28.4619 228.965C28.8691 227.904 29.0727 226.72 29.0727 225.414C29.0727 223.965 28.8312 222.677 28.3482 221.55C27.8558 220.414 27.174 219.523 26.3028 218.879C25.4221 218.226 24.3994 217.899 23.2346 217.899C22.2497 217.899 21.4259 218.155 20.763 218.666C20.0906 219.178 19.5272 219.893 19.0727 220.811C18.6181 221.72 18.2156 222.776 17.8653 223.979L16.8425 227.459C16.1607 229.741 15.2185 231.512 14.0158 232.772C12.8132 234.031 11.2791 234.661 9.41356 234.661C7.85106 234.661 6.47795 234.244 5.29424 233.411C4.10106 232.568 3.17303 231.432 2.51015 230.002C1.8378 228.562 1.50163 226.948 1.50163 225.158C1.50163 223.349 1.83307 221.749 2.49595 220.357C3.15883 218.965 4.07265 217.862 5.23742 217.047C6.39273 216.223 7.70901 215.783 9.18629 215.726V218.297Z" fill="black"/>
<path d="M16.459 187.087C19.4893 187.087 22.1266 187.627 24.3709 188.706C26.6058 189.786 28.3388 191.272 29.5698 193.166C30.7914 195.051 31.4022 197.219 31.4022 199.672C31.4022 202.125 30.7914 204.298 29.5698 206.192C28.3388 208.076 26.6058 209.558 24.3709 210.638C22.1266 211.708 19.4893 212.243 16.459 212.243C13.4287 212.243 10.7961 211.708 8.56129 210.638C6.31697 209.558 4.58401 208.072 3.36242 206.178C2.13136 204.284 1.51583 202.115 1.51583 199.672C1.51583 197.219 2.13136 195.051 3.36242 193.166C4.58401 191.272 6.31697 189.786 8.56129 188.706C10.7961 187.627 13.4287 187.087 16.459 187.087ZM16.459 189.672C13.8548 189.672 11.6247 190.108 9.76867 190.979C7.90314 191.85 6.47795 193.039 5.4931 194.544C4.50826 196.05 4.01583 197.759 4.01583 199.672C4.01583 201.576 4.50826 203.28 5.4931 204.786C6.47795 206.291 7.89841 207.485 9.75447 208.365C11.6105 209.237 13.8454 209.672 16.459 209.672C19.0632 209.672 21.2933 209.237 23.1494 208.365C25.0054 207.494 26.4306 206.306 27.4249 204.8C28.4098 203.294 28.9022 201.585 28.9022 199.672C28.9022 197.759 28.4098 196.05 27.4249 194.544C26.4401 193.029 25.0196 191.836 23.1636 190.965C21.298 190.094 19.0632 189.663 16.459 189.672Z" fill="black"/>
<path d="M1.91356 182.663L1.91356 179.595L27.2545 169.041V168.785L1.91356 158.231L1.91356 155.163H31.0045V157.663H7.52435V157.89L31.0045 167.705V170.12L7.52435 179.936V180.163H31.0045V182.663H1.91356Z" fill="black"/>
<path d="M31.0045 149.386V152.17L1.91356 141.588L1.91356 138.747L31.0045 128.164V130.948L5.36526 140.068V140.267L31.0045 149.386ZM19.8539 147.383V132.951H22.2403V147.383H19.8539Z" fill="black"/>
<path d="M9.18629 108.929C7.19765 109.071 5.56413 109.833 4.28572 111.215C3.00731 112.589 2.3681 114.402 2.3681 116.656C2.3681 118.133 2.6522 119.454 3.22038 120.619C3.78856 121.784 4.56981 122.702 5.56413 123.375C6.54898 124.047 7.6806 124.383 8.95901 124.383C9.69765 124.383 10.3795 124.26 11.0045 124.014C11.6295 123.768 12.2024 123.393 12.7232 122.892C13.2346 122.38 13.6986 121.741 14.1153 120.974C14.5225 120.197 14.887 119.288 15.209 118.247L16.2317 114.951C16.62 113.692 17.0556 112.603 17.5386 111.684C18.0215 110.766 18.566 110.008 19.1721 109.411C19.7687 108.805 20.4363 108.356 21.1749 108.062C21.9041 107.768 22.7185 107.622 23.6181 107.622C25.1333 107.622 26.4827 108.01 27.6664 108.786C28.8501 109.563 29.7781 110.647 30.4505 112.039C31.1228 113.431 31.459 115.046 31.459 116.883C31.459 118.654 31.1513 120.202 30.5357 121.528C29.9107 122.854 29.0537 123.905 27.9647 124.681C26.8662 125.448 25.6067 125.879 24.1863 125.974V125.065C25.4363 124.97 26.5395 124.577 27.4959 123.886C28.4524 123.195 29.2005 122.257 29.7403 121.073C30.28 119.88 30.5499 118.483 30.5499 116.883C30.5499 115.216 30.2611 113.758 29.6834 112.508C29.0963 111.249 28.2819 110.273 27.2403 109.582C26.1986 108.881 24.9912 108.531 23.6181 108.531C22.5764 108.531 21.6626 108.758 20.8766 109.213C20.0812 109.667 19.3804 110.382 18.7744 111.357C18.1683 112.333 17.6238 113.607 17.1408 115.179L16.1181 118.474C15.3984 120.756 14.4467 122.465 13.263 123.602C12.0793 124.729 10.6446 125.292 8.95901 125.292C7.52909 125.292 6.25068 124.918 5.12379 124.17C3.98742 123.422 3.09254 122.399 2.43913 121.102C1.78572 119.795 1.45901 118.313 1.45901 116.656C1.45901 114.989 1.79045 113.526 2.45333 112.267C3.11621 111.007 4.03004 110.008 5.19481 109.269C6.35958 108.531 7.69008 108.114 9.18629 108.019V108.929Z" fill="black"/>
<path d="M31.0045 104.277V105.243L1.91356 94.8454V93.5954L31.0045 83.1977V84.1636L3.04992 94.1636V94.2772L31.0045 104.277ZM20.2658 100.982L20.2658 87.459H21.1749L21.1749 100.982H20.2658Z" fill="black"/>
<path d="M31.0045 77.0194L1.91356 85.0308V84.0649L29.584 76.4512V76.3376L1.91356 68.9512V67.7012L29.584 60.3149V60.2012L1.91356 52.5876L1.91356 51.6217L31.0045 59.633V60.883L3.33401 68.2694V68.3831L31.0045 75.7694V77.0194Z" fill="black"/>
<path d="M31.0045 52.496V53.4619L1.91356 43.0642L1.91356 41.8142L31.0045 31.4164L31.0045 32.3823L3.04992 42.3823V42.496L31.0045 52.496ZM20.2658 49.2005V35.6778H21.1749V49.2005H20.2658Z" fill="black"/>
<path d="M7.89703 27.9562L2.00447 22.2741M2.00447 22.2741L8.23403 16.5381M2.00447 22.2741L17.0045 22.3312" stroke="url(#paint0_linear_2_98)" stroke-width="2"/>
<path d="M7.89703 12.9562L2.00447 7.2741M2.00447 7.2741L8.23403 1.53815M2.00447 7.2741L17.0045 7.33121" stroke="url(#paint1_linear_2_98)" stroke-width="2"/>
<defs>
<linearGradient id="paint0_linear_2_98" x1="2.00447" y1="22.2472" x2="17.0045" y2="22.2472" gradientUnits="userSpaceOnUse">
<stop stop-color="#00F0FF"/>
<stop offset="1" stop-color="#FC71FF"/>
</linearGradient>
<linearGradient id="paint1_linear_2_98" x1="2.00447" y1="7.24718" x2="17.0045" y2="7.24718" gradientUnits="userSpaceOnUse">
<stop stop-color="#00F0FF"/>
<stop offset="1" stop-color="#FC71FF"/>
</linearGradient>
</defs>
</svg>
