<svg width="235" height="32" viewBox="0 0 235 32" fill="none" xmlns="http://www.w3.org/2000/svg">
<path d="M17.1165 8.72727C16.9555 7.10795 16.2405 5.82008 14.9716 4.86364C13.7027 3.9072 12.107 3.42898 10.1847 3.42898C8.83049 3.42898 7.63731 3.66098 6.60511 4.125C5.58239 4.58902 4.77746 5.23295 4.19034 6.05682C3.61269 6.87121 3.32386 7.79924 3.32386 8.84091C3.32386 9.60795 3.48958 10.2803 3.82102 10.858C4.15246 11.4356 4.59754 11.9328 5.15625 12.3494C5.72443 12.7566 6.34943 13.107 7.03125 13.4006C7.72254 13.6941 8.41856 13.9403 9.11932 14.1392L12.1875 15.0199C13.1155 15.2756 14.0436 15.6023 14.9716 16C15.8996 16.3977 16.7472 16.8996 17.5142 17.5057C18.2907 18.1023 18.911 18.8362 19.375 19.7074C19.8485 20.5691 20.0852 21.6061 20.0852 22.8182C20.0852 24.3712 19.6828 25.768 18.8778 27.0085C18.0729 28.2491 16.9176 29.2339 15.4119 29.9631C13.9063 30.6828 12.1023 31.0426 10 31.0426C8.02083 31.0426 6.30208 30.7159 4.84375 30.0625C3.38542 29.3996 2.23958 28.4858 1.40625 27.321C0.572917 26.1563 0.104167 24.8068 0 23.2727H2.72727C2.82197 24.4186 3.20076 25.3892 3.86364 26.1847C4.52652 26.9801 5.38826 27.5862 6.44886 28.0028C7.50947 28.41 8.69318 28.6136 10 28.6136C11.4489 28.6136 12.7367 28.3722 13.8636 27.8892C15 27.3968 15.8902 26.715 16.5341 25.8438C17.1875 24.9631 17.5142 23.9403 17.5142 22.7756C17.5142 21.7907 17.2585 20.9669 16.7472 20.304C16.2358 19.6316 15.5208 19.0682 14.6023 18.6136C13.6932 18.1591 12.6373 17.7566 11.4347 17.4062L7.95455 16.3835C5.67235 15.7017 3.90152 14.7595 2.64205 13.5568C1.38258 12.3542 0.752841 10.8201 0.752841 8.95455C0.752841 7.39205 1.16951 6.01894 2.00284 4.83523C2.84564 3.64205 3.98201 2.71402 5.41193 2.05114C6.85133 1.37879 8.46591 1.04261 10.2557 1.04261C12.0644 1.04261 13.6648 1.37405 15.0568 2.03693C16.4489 2.69981 17.5521 3.61364 18.3665 4.77841C19.1903 5.93371 19.6307 7.25 19.6875 8.72727H17.1165Z" fill="url(#paint0_linear_2_118)"/>
<path d="M48.3267 16C48.3267 19.0303 47.7869 21.6676 46.7074 23.9119C45.6278 26.1468 44.1411 27.8797 42.2472 29.1108C40.3627 30.3324 38.1941 30.9432 35.7415 30.9432C33.2888 30.9432 31.1155 30.3324 29.2216 29.1108C27.3371 27.8797 25.8551 26.1468 24.7756 23.9119C23.7055 21.6676 23.1705 19.0303 23.1705 16C23.1705 12.9697 23.7055 10.3371 24.7756 8.10227C25.8551 5.85795 27.3419 4.125 29.2358 2.90341C31.1297 1.67235 33.2983 1.05682 35.7415 1.05682C38.1941 1.05682 40.3627 1.67235 42.2472 2.90341C44.1411 4.125 45.6278 5.85795 46.7074 8.10227C47.7869 10.3371 48.3267 12.9697 48.3267 16ZM45.7415 16C45.7415 13.3958 45.3059 11.1657 44.4347 9.30966C43.5634 7.44413 42.375 6.01894 40.8693 5.03409C39.3636 4.04924 37.6544 3.55682 35.7415 3.55682C33.8381 3.55682 32.1335 4.04924 30.6278 5.03409C29.1222 6.01894 27.929 7.43939 27.0483 9.29545C26.1771 11.1515 25.7415 13.3864 25.7415 16C25.7415 18.6042 26.1771 20.8343 27.0483 22.6903C27.9195 24.5464 29.108 25.9716 30.6136 26.9659C32.1193 27.9508 33.8286 28.4432 35.7415 28.4432C37.6544 28.4432 39.3636 27.9508 40.8693 26.9659C42.3845 25.9811 43.5777 24.5606 44.4489 22.7045C45.3201 20.839 45.7509 18.6042 45.7415 16Z" fill="url(#paint1_linear_2_118)"/>
<path d="M52.7507 1.45455H55.8189L66.3729 26.7955H66.6285L77.1825 1.45455H80.2507V30.5455H77.7507V7.06534H77.5234L67.7081 30.5455H65.2933L55.478 7.06534H55.2507V30.5455H52.7507V1.45455Z" fill="url(#paint2_linear_2_118)"/>
<path d="M86.0277 30.5455H83.2436L93.826 1.45455H96.6669L107.249 30.5455H104.465L95.3459 4.90625H95.147L86.0277 30.5455ZM88.0305 19.3949H102.462V21.7812H88.0305V19.3949Z" fill="url(#paint3_linear_2_118)"/>
<path d="M126.485 8.72727C126.343 6.73864 125.581 5.10511 124.198 3.8267C122.825 2.5483 121.012 1.90909 118.758 1.90909C117.281 1.90909 115.96 2.19318 114.795 2.76136C113.63 3.32954 112.711 4.11079 112.039 5.10511C111.367 6.08996 111.031 7.22159 111.031 8.5C111.031 9.23864 111.154 9.92045 111.4 10.5455C111.646 11.1705 112.02 11.7434 112.522 12.2642C113.033 12.7756 113.673 13.2396 114.44 13.6562C115.216 14.0634 116.125 14.428 117.167 14.75L120.462 15.7727C121.722 16.161 122.811 16.5966 123.729 17.0795C124.648 17.5625 125.406 18.107 126.002 18.7131C126.608 19.3097 127.058 19.9773 127.352 20.7159C127.645 21.4451 127.792 22.2595 127.792 23.1591C127.792 24.6742 127.404 26.0237 126.627 27.2074C125.851 28.3911 124.766 29.3191 123.374 29.9915C121.982 30.6638 120.368 31 118.531 31C116.76 31 115.211 30.6922 113.886 30.0767C112.56 29.4517 111.509 28.5947 110.732 27.5057C109.965 26.4072 109.534 25.1477 109.44 23.7273H110.349C110.443 24.9773 110.836 26.0805 111.528 27.0369C112.219 27.9934 113.156 28.7415 114.34 29.2812C115.533 29.821 116.93 30.0909 118.531 30.0909C120.197 30.0909 121.656 29.8021 122.906 29.2244C124.165 28.6373 125.14 27.8229 125.832 26.7812C126.532 25.7396 126.883 24.5322 126.883 23.1591C126.883 22.1174 126.656 21.2036 126.201 20.4176C125.746 19.6222 125.031 18.9214 124.056 18.3153C123.081 17.7093 121.807 17.1648 120.235 16.6818L116.94 15.6591C114.657 14.9394 112.948 13.9877 111.812 12.804C110.685 11.6203 110.121 10.1856 110.121 8.5C110.121 7.07008 110.496 5.79167 111.244 4.66477C111.992 3.52841 113.014 2.63352 114.312 1.98011C115.619 1.3267 117.101 1 118.758 1C120.424 1 121.888 1.33144 123.147 1.99432C124.406 2.6572 125.406 3.57102 126.144 4.7358C126.883 5.90057 127.299 7.23106 127.394 8.72727H126.485Z" fill="url(#paint4_linear_2_118)"/>
<path d="M131.136 30.5455H130.17L140.568 1.45455H141.818L152.216 30.5455H151.25L141.25 2.59091H141.136L131.136 30.5455ZM134.432 19.8068H147.955V20.7159H134.432V19.8068Z" fill="url(#paint5_linear_2_118)"/>
<path d="M158.394 30.5455L150.383 1.45455H151.349L158.962 29.125H159.076L166.462 1.45455H167.712L175.099 29.125H175.212L182.826 1.45455H183.792L175.781 30.5455H174.531L167.144 2.875H167.031L159.644 30.5455H158.394Z" fill="url(#paint6_linear_2_118)"/>
<path d="M182.918 30.5455H181.952L192.349 1.45455H193.599L203.997 30.5455H203.031L193.031 2.59091H192.918L182.918 30.5455ZM186.213 19.8068H199.736V20.7159H186.213V19.8068Z" fill="url(#paint7_linear_2_118)"/>
<path d="M207.457 7.438L213.139 1.54544M213.139 1.54544L218.875 7.775M213.139 1.54544L213.082 16.5454" stroke="url(#paint8_linear_2_118)" stroke-width="2"/>
<path d="M222.457 7.438L228.139 1.54544M228.139 1.54544L233.875 7.775M228.139 1.54544L228.082 16.5454" stroke="url(#paint9_linear_2_118)" stroke-width="2"/>
<defs>
<linearGradient id="paint0_linear_2_118" x1="101.999" y1="1" x2="102" y2="34" gradientUnits="userSpaceOnUse">
<stop stop-color="#00F0FF"/>
<stop offset="1" stop-color="#FC71FF"/>
</linearGradient>
<linearGradient id="paint1_linear_2_118" x1="101.999" y1="1" x2="102" y2="34" gradientUnits="userSpaceOnUse">
<stop stop-color="#00F0FF"/>
<stop offset="1" stop-color="#FC71FF"/>
</linearGradient>
<linearGradient id="paint2_linear_2_118" x1="101.999" y1="1" x2="102" y2="34" gradientUnits="userSpaceOnUse">
<stop stop-color="#00F0FF"/>
<stop offset="1" stop-color="#FC71FF"/>
</linearGradient>
<linearGradient id="paint3_linear_2_118" x1="101.999" y1="1" x2="102" y2="34" gradientUnits="userSpaceOnUse">
<stop stop-color="#00F0FF"/>
<stop offset="1" stop-color="#FC71FF"/>
</linearGradient>
<linearGradient id="paint4_linear_2_118" x1="101.999" y1="1" x2="102" y2="34" gradientUnits="userSpaceOnUse">
<stop stop-color="#00F0FF"/>
<stop offset="1" stop-color="#FC71FF"/>
</linearGradient>
<linearGradient id="paint5_linear_2_118" x1="101.999" y1="1" x2="102" y2="34" gradientUnits="userSpaceOnUse">
<stop stop-color="#00F0FF"/>
<stop offset="1" stop-color="#FC71FF"/>
</linearGradient>
<linearGradient id="paint6_linear_2_118" x1="101.999" y1="1" x2="102" y2="34" gradientUnits="userSpaceOnUse">
<stop stop-color="#00F0FF"/>
<stop offset="1" stop-color="#FC71FF"/>
</linearGradient>
<linearGradient id="paint7_linear_2_118" x1="101.999" y1="1" x2="102" y2="34" gradientUnits="userSpaceOnUse">
<stop stop-color="#00F0FF"/>
<stop offset="1" stop-color="#FC71FF"/>
</linearGradient>
<linearGradient id="paint8_linear_2_118" x1="213.166" y1="1.54544" x2="213.166" y2="16.5454" gradientUnits="userSpaceOnUse">
<stop stop-color="#00F0FF"/>
<stop offset="1" stop-color="#FC71FF"/>
</linearGradient>
<linearGradient id="paint9_linear_2_118" x1="228.166" y1="1.54544" x2="228.166" y2="16.5454" gradientUnits="userSpaceOnUse">
<stop stop-color="#00F0FF"/>
<stop offset="1" stop-color="#FC71FF"/>
</linearGradient>
</defs>
</svg>
