<svg width="62" height="37" viewBox="0 0 62 37" fill="none" xmlns="http://www.w3.org/2000/svg">
<path d="M43.5586 31.9625C43.7482 31.9625 43.8951 31.803 43.8951 31.627V9.17453L43.8576 5.94L43.7719 5.98776L46.8919 9.14261L53.5012 15.7479C53.5585 15.7915 53.6638 15.827 53.7702 15.827C53.944 15.827 54.1036 15.6926 54.1036 15.4789C54.1036 15.3726 54.0681 15.2965 54.0078 15.2215L43.8044 5.09888C43.7304 5.0375 43.666 5 43.5586 5C43.4512 5 43.3731 5.0375 43.2992 5.09888L33.1105 15.2215C33.0365 15.2965 33 15.3726 33 15.4789C33 15.6926 33.1595 15.827 33.3334 15.827C33.4398 15.827 33.5597 15.7915 33.6024 15.7479L40.2117 9.14261L43.3307 5.98776L43.246 5.94L43.2221 9.17453V31.627C43.2221 31.803 43.3554 31.9625 43.5586 31.9625Z" fill="black" fill-opacity="0.85"/>
<path d="M18.5586 31.9625C18.7482 31.9625 18.8951 31.803 18.8951 31.627V9.17453L18.8576 5.94L18.7719 5.98776L21.8919 9.14261L28.5012 15.7479C28.5585 15.7915 28.6638 15.827 28.7702 15.827C28.944 15.827 29.1036 15.6926 29.1036 15.4789C29.1036 15.3726 29.0681 15.2965 29.0078 15.2215L18.8044 5.09888C18.7304 5.0375 18.666 5 18.5586 5C18.4512 5 18.3731 5.0375 18.2992 5.09888L8.11045 15.2215C8.03648 15.2965 8 15.3726 8 15.4789C8 15.6926 8.15952 15.827 8.33341 15.827C8.43976 15.827 8.55973 15.7915 8.60236 15.7479L15.2117 9.14261L18.3307 5.98776L18.246 5.94L18.2221 9.17453V31.627C18.2221 31.803 18.3554 31.9625 18.5586 31.9625Z" fill="black" fill-opacity="0.85"/>
<path d="M0.199997 18.56C0.199997 16.5333 0.41333 14.6267 0.839997 12.84C1.26666 11.0533 1.84 9.40001 2.56 7.88001C3.30666 6.36001 4.17333 4.98667 5.16 3.76001C6.14666 2.53334 7.2 1.48001 8.32 0.600006H9.88C8.70666 1.50667 7.61333 2.57334 6.6 3.80001C5.58666 5.00001 4.70666 6.33334 3.96 7.80001C3.21333 9.24001 2.62666 10.8 2.2 12.48C1.77333 14.1333 1.56 15.8533 1.56 17.64V19.48C1.56 21.2933 1.77333 23.0267 2.2 24.68C2.62666 26.3333 3.21333 27.8933 3.96 29.36C4.70666 30.8 5.58666 32.12 6.6 33.32C7.61333 34.5467 8.70666 35.6133 9.88 36.52H8.32C7.2 35.64 6.14666 34.5867 5.16 33.36C4.17333 32.1333 3.30666 30.76 2.56 29.24C1.84 27.72 1.26666 26.0667 0.839997 24.28C0.41333 22.4933 0.199997 20.5867 0.199997 18.56Z" fill="black"/>
<path d="M61.8 18.56C61.8 20.5867 61.5867 22.4933 61.16 24.28C60.7333 26.0667 60.1467 27.72 59.4 29.24C58.68 30.76 57.8267 32.1333 56.84 33.36C55.8533 34.5867 54.8 35.64 53.68 36.52H52.12C53.2933 35.6133 54.3867 34.5467 55.4 33.32C56.4133 32.12 57.2933 30.8 58.04 29.36C58.7867 27.8933 59.3733 26.3333 59.8 24.68C60.2267 23.0267 60.44 21.2933 60.44 19.48V17.64C60.44 15.8533 60.2267 14.1333 59.8 12.48C59.3733 10.8 58.7867 9.24001 58.04 7.80001C57.2933 6.33334 56.4133 5.00001 55.4 3.80001C54.3867 2.57334 53.2933 1.50667 52.12 0.600006H53.68C54.8 1.48001 55.8533 2.53334 56.84 3.76001C57.8267 4.98667 58.68 6.36001 59.4 7.88001C60.1467 9.40001 60.7333 11.0533 61.16 12.84C61.5867 14.6267 61.8 16.5333 61.8 18.56Z" fill="black"/>
</svg>
